HIERARCHY
ROOT Hips
{
	OFFSET 1.324476 86.935013 4.250773
	CHANNELS 6 Xposition Yposition Zposition Zrotation Yrotation Xrotation 
	JOINT Spine
	{
		OFFSET 0.000000 8.814246 -2.080107
		CHANNELS 3 Zrotation Yrotation Xrotation
		JOINT Spine1
		{
			OFFSET 0.000000 8.844141 -0.000000
			CHANNELS 3 Zrotation Yrotation Xrotation
			JOINT Spine2
			{
				OFFSET 0.000000 11.682268 0.000000
				CHANNELS 3 Zrotation Yrotation Xrotation
				JOINT Spine3
				{
					OFFSET 0.000000 11.746700 0.000000
					CHANNELS 3 Zrotation Yrotation Xrotation
					JOINT Neck
					{
						OFFSET -0.000000 17.658264 -0.000000
						CHANNELS 3 Zrotation Yrotation Xrotation
						JOINT Neck1
						{
							OFFSET 0.000000 5.101515 -0.000000
							CHANNELS 3 Zrotation Yrotation Xrotation
							JOINT Head
							{
								OFFSET 0.000000 5.101515 0.000000
								CHANNELS 3 Zrotation Yrotation Xrotation
								JOINT HeadEnd
								{
									OFFSET -0.000000 11.655085 0.000000
									CHANNELS 3 Zrotation Yrotation Xrotation
									End Site
									{
										OFFSET 0.000000 0.000000 0.000000
									}
								}
							}
						}
					}
					JOINT RightShoulder
					{
						OFFSET -2.625389 11.175210 -0.000000
						CHANNELS 3 Zrotation Yrotation Xrotation
						JOINT RightArm
						{
							OFFSET -0.000000 10.434715 -0.000000
							CHANNELS 3 Zrotation Yrotation Xrotation
							JOINT RightForeArm
							{
								OFFSET -0.000000 29.628420 -0.000000
								CHANNELS 3 Zrotation Yrotation Xrotation
								JOINT RightHand
								{
									OFFSET -0.000000 22.857611 -0.000000
									CHANNELS 3 Zrotation Yrotation Xrotation
									JOINT RightHandThumb1
									{
										OFFSET -2.867323 3.959563 2.944291
										CHANNELS 3 Zrotation Yrotation Xrotation
										JOINT RightHandThumb2
										{
											OFFSET -0.000000 3.350399 0.000000
											CHANNELS 3 Zrotation Yrotation Xrotation
											JOINT RightHandThumb3
											{
												OFFSET 0.000000 3.756509 -0.000000
												CHANNELS 3 Zrotation Yrotation Xrotation
												JOINT RightHandThumb4
												{
													OFFSET 0.000000 3.147345 -0.000000
													CHANNELS 3 Zrotation Yrotation Xrotation
													End Site
													{
														OFFSET 0.000000 0.000000 0.000000
													}
												}
											}
										}
									}
									JOINT RightHandIndex1
									{
										OFFSET -0.086752 10.030893 2.345280
										CHANNELS 3 Zrotation Yrotation Xrotation
										JOINT RightHandIndex2
										{
											OFFSET -0.000000 4.061090 -0.000000
											CHANNELS 3 Zrotation Yrotation Xrotation
											JOINT RightHandIndex3
											{
												OFFSET 0.000000 3.248873 0.000000
												CHANNELS 3 Zrotation Yrotation Xrotation
												JOINT RightHandIndex4
												{
													OFFSET 0.000000 2.639709 -0.000000
													CHANNELS 3 Zrotation Yrotation Xrotation
													End Site
													{
														OFFSET 0.000000 0.000000 0.000000
													}
												}
											}
										}
									}
									JOINT RightHandMiddle1
									{
										OFFSET 0.104102 9.502952 0.006768
										CHANNELS 3 Zrotation Yrotation Xrotation
										JOINT RightHandMiddle2
										{
											OFFSET 0.000000 4.568727 0.000000
											CHANNELS 3 Zrotation Yrotation Xrotation
											JOINT RightHandMiddle3
											{
												OFFSET 0.000000 3.654981 -0.000000
												CHANNELS 3 Zrotation Yrotation Xrotation
												JOINT RightHandMiddle4
												{
													OFFSET -0.000000 2.741236 -0.000000
													CHANNELS 3 Zrotation Yrotation Xrotation
													End Site
													{
														OFFSET 0.000000 0.000000 0.000000
													}
												}
											}
										}
									}
									JOINT RightHandRing1
									{
										OFFSET 0.086752 8.921708 -2.267442
										CHANNELS 3 Zrotation Yrotation Xrotation
										JOINT RightHandRing2
										{
											OFFSET -0.000000 4.061090 0.000000
											CHANNELS 3 Zrotation Yrotation Xrotation
											JOINT RightHandRing3
											{
												OFFSET -0.000000 3.654981 -0.000000
												CHANNELS 3 Zrotation Yrotation Xrotation
												JOINT RightHandRing4
												{
													OFFSET -0.000000 2.741236 -0.000000
													CHANNELS 3 Zrotation Yrotation Xrotation
													End Site
													{
														OFFSET 0.000000 0.000000 0.000000
													}
												}
											}
										}
									}
									JOINT RightHandPinky1
									{
										OFFSET -0.173504 7.976997 -4.467199
										CHANNELS 3 Zrotation Yrotation Xrotation
										JOINT RightHandPinky2
										{
											OFFSET -0.000000 3.350399 -0.000000
											CHANNELS 3 Zrotation Yrotation Xrotation
											JOINT RightHandPinky3
											{
												OFFSET -0.000000 2.842763 -0.000000
												CHANNELS 3 Zrotation Yrotation Xrotation
												JOINT RightHandPinky4
												{
													OFFSET 0.000000 2.639709 0.000000
													CHANNELS 3 Zrotation Yrotation Xrotation
													End Site
													{
														OFFSET 0.000000 0.000000 0.000000
													}
												}
											}
										}
									}
									JOINT RightForeArmEnd
									{
										OFFSET 0.000000 0.000000 0.000000
										CHANNELS 3 Zrotation Yrotation Xrotation
										End Site
										{
											OFFSET 0.000000 0.000000 0.000000
										}
									}
								}
								JOINT RightArmEnd
								{
									OFFSET 0.000000 0.000000 0.000000
									CHANNELS 3 Zrotation Yrotation Xrotation
									End Site
									{
										OFFSET 0.000000 0.000000 0.000000
									}
								}
							}
						}
					}
					JOINT LeftShoulder
					{
						OFFSET 2.625389 11.175210 -0.000000
						CHANNELS 3 Zrotation Yrotation Xrotation
						JOINT LeftArm
						{
							OFFSET 0.000000 10.813635 0.000000
							CHANNELS 3 Zrotation Yrotation Xrotation
							JOINT LeftForeArm
							{
								OFFSET 0.000000 28.724781 -0.000000
								CHANNELS 3 Zrotation Yrotation Xrotation
								JOINT LeftHand
								{
									OFFSET 0.644384 25.716167 -0.328871
									CHANNELS 3 Zrotation Yrotation Xrotation
									JOINT LeftHandThumb1
									{
										OFFSET 2.867323 3.959563 2.944291
										CHANNELS 3 Zrotation Yrotation Xrotation
										JOINT LeftHandThumb2
										{
											OFFSET -0.000000 3.350399 -0.000000
											CHANNELS 3 Zrotation Yrotation Xrotation
											JOINT LeftHandThumb3
											{
												OFFSET -0.000000 3.756509 0.000000
												CHANNELS 3 Zrotation Yrotation Xrotation
												JOINT LeftHandThumb4
												{
													OFFSET 0.000000 3.100000 -0.000000
													CHANNELS 3 Zrotation Yrotation Xrotation
													End Site
													{
														OFFSET 0.000000 0.000000 0.000000
													}
												}
											}
										}
									}
									JOINT LeftHandIndex1
									{
										OFFSET 0.086752 10.030893 2.345280
										CHANNELS 3 Zrotation Yrotation Xrotation
										JOINT LeftHandIndex2
										{
											OFFSET 0.000000 4.061090 -0.000000
											CHANNELS 3 Zrotation Yrotation Xrotation
											JOINT LeftHandIndex3
											{
												OFFSET 0.000000 3.248873 -0.000000
												CHANNELS 3 Zrotation Yrotation Xrotation
												JOINT LeftHandIndex4
												{
													OFFSET -0.000000 2.639709 0.000000
													CHANNELS 3 Zrotation Yrotation Xrotation
													End Site
													{
														OFFSET 0.000000 0.000000 0.000000
													}
												}
											}
										}
									}
									JOINT LeftHandMiddle1
									{
										OFFSET -0.104102 9.502952 0.006768
										CHANNELS 3 Zrotation Yrotation Xrotation
										JOINT LeftHandMiddle2
										{
											OFFSET 0.000000 4.568727 -0.000000
											CHANNELS 3 Zrotation Yrotation Xrotation
											JOINT LeftHandMiddle3
											{
												OFFSET 0.000000 3.654981 -0.000000
												CHANNELS 3 Zrotation Yrotation Xrotation
												JOINT LeftHandMiddle4
												{
													OFFSET -0.000000 2.741236 0.000000
													CHANNELS 3 Zrotation Yrotation Xrotation
													End Site
													{
														OFFSET 0.000000 0.000000 0.000000
													}
												}
											}
										}
									}
									JOINT LeftHandRing1
									{
										OFFSET -0.086752 8.921708 -2.267442
										CHANNELS 3 Zrotation Yrotation Xrotation
										JOINT LeftHandRing2
										{
											OFFSET 0.000000 4.061090 -0.000000
											CHANNELS 3 Zrotation Yrotation Xrotation
											JOINT LeftHandRing3
											{
												OFFSET 0.000000 3.654981 -0.000000
												CHANNELS 3 Zrotation Yrotation Xrotation
												JOINT LeftHandRing4
												{
													OFFSET 0.000000 2.741236 0.000000
													CHANNELS 3 Zrotation Yrotation Xrotation
													End Site
													{
														OFFSET 0.000000 0.000000 0.000000
													}
												}
											}
										}
									}
									JOINT LeftHandPinky1
									{
										OFFSET 0.173504 7.976997 -4.467199
										CHANNELS 3 Zrotation Yrotation Xrotation
										JOINT LeftHandPinky2
										{
											OFFSET 0.000000 3.350399 -0.000000
											CHANNELS 3 Zrotation Yrotation Xrotation
											JOINT LeftHandPinky3
											{
												OFFSET -0.000000 2.842763 0.000000
												CHANNELS 3 Zrotation Yrotation Xrotation
												JOINT LeftHandPinky4
												{
													OFFSET 0.000000 2.639709 -0.000000
													CHANNELS 3 Zrotation Yrotation Xrotation
													End Site
													{
														OFFSET 0.000000 0.000000 0.000000
													}
												}
											}
										}
									}
									JOINT LeftForeArmEnd
									{
										OFFSET 0.000000 0.000000 0.000000
										CHANNELS 3 Zrotation Yrotation Xrotation
										End Site
										{
											OFFSET 0.000000 0.000000 0.000000
										}
									}
								}
								JOINT LeftArmEnd
								{
									OFFSET 0.000000 0.000000 0.000000
									CHANNELS 3 Zrotation Yrotation Xrotation
									End Site
									{
										OFFSET 0.000000 0.000000 0.000000
									}
								}
							}
						}
					}
				}
			}
		}
	}
	JOINT RightUpLeg
	{
		OFFSET -11.289943 -0.000000 0.000000
		CHANNELS 3 Zrotation Yrotation Xrotation
		JOINT RightLeg
		{
			OFFSET -0.000000 -38.200325 -0.000000
			CHANNELS 3 Zrotation Yrotation Xrotation
			JOINT RightFoot
			{
				OFFSET -0.000000 -39.900856 0.000000
				CHANNELS 3 Zrotation Yrotation Xrotation
				JOINT RightToeBase
				{
					OFFSET 0.000000 0.000000 15.261641
					CHANNELS 3 Zrotation Yrotation Xrotation
					JOINT RightToeBaseEnd
					{
						OFFSET 0.000000 -0.000000 7.370709
						CHANNELS 3 Zrotation Yrotation Xrotation
						End Site
						{
							OFFSET 0.000000 0.000000 0.000000
						}
					}
				}
				JOINT RightLegEnd
				{
					OFFSET 0.000000 0.000000 0.000000
					CHANNELS 3 Zrotation Yrotation Xrotation
					End Site
					{
						OFFSET 0.000000 0.000000 0.000000
					}
				}
			}
			JOINT RightUpLegEnd
			{
				OFFSET 0.000000 0.000000 0.000000
				CHANNELS 3 Zrotation Yrotation Xrotation
				End Site
				{
					OFFSET 0.000000 0.000000 0.000000
				}
			}
		}
	}
	JOINT LeftUpLeg
	{
		OFFSET 11.315661 0.000000 -0.000000
		CHANNELS 3 Zrotation Yrotation Xrotation
		JOINT LeftLeg
		{
			OFFSET -0.000000 -38.200325 0.000000
			CHANNELS 3 Zrotation Yrotation Xrotation
			JOINT LeftFoot
			{
				OFFSET -0.000000 -39.900856 0.000000
				CHANNELS 3 Zrotation Yrotation Xrotation
				JOINT LeftToeBase
				{
					OFFSET -0.000000 0.000000 15.261641
					CHANNELS 3 Zrotation Yrotation Xrotation
					JOINT LeftToeBaseEnd
					{
						OFFSET -0.000000 0.000000 7.539996
						CHANNELS 3 Zrotation Yrotation Xrotation
						End Site
						{
							OFFSET 0.000000 0.000000 0.000000
						}
					}
				}
				JOINT LeftLegEnd
				{
					OFFSET 0.000000 0.000000 0.000000
					CHANNELS 3 Zrotation Yrotation Xrotation
					End Site
					{
						OFFSET 0.000000 0.000000 0.000000
					}
				}
			}
			JOINT LeftUpLegEnd
			{
				OFFSET 0.000000 0.000000 0.000000
				CHANNELS 3 Zrotation Yrotation Xrotation
				End Site
				{
					OFFSET 0.000000 0.000000 0.000000
				}
			}
		}
	}
}
MOTION
Frames: 4
Frame Time: 0.016667
-0.665210 85.470886 5.901322 -1.473869 -5.313503 -15.624303 0.007075 0.176097 9.404772 5.088212 -1.329606 -4.031151 -2.809177 0.300275 20.374504 0.321213 -0.642358 -1.568439 7.582948 0.916260 11.144220 -3.183006 0.570460 -7.328210 -0.154587 3.414040 -25.855900 0.000000 0.000000 0.000000 97.953201 -0.995891 4.729066 56.016518 -44.755863 8.696600 1.395059 16.047281 32.651737 5.060301 16.281139 -11.790755 9.526098 -1.744793 40.260998 -0.000003 0.000045 -23.266491 0.000003 0.000070 -16.096933 0.000016 0.000002 -0.000051 11.177374 0.205142 -8.747282 7.715200 -0.067197 0.125335 7.684576 -0.037679 0.057926 -0.000004 0.000029 -0.000037 11.742804 0.069463 -10.937665 8.145767 -0.038383 0.038375 8.103581 -0.009418 0.038267 -0.000005 -0.000031 -0.000009 13.427896 -0.127568 -12.222205 9.705001 0.075004 -0.043062 9.563922 0.014321 -0.039735 -0.000018 -0.000249 0.000016 14.628680 -0.405349 -14.918275 10.466381 0.155341 -0.093477 10.533311 0.022035 -0.101316 0.000011 -0.000012 -0.000007 0.000000 0.000000 0.000000 0.000000 0.000000 0.000000 -95.207214 0.824863 4.508837 -55.621616 45.207806 2.586047 -1.467326 -7.520788 49.285130 -2.977933 -20.374041 -16.515331 -8.875791 1.679054 40.502209 0.000008 0.000057 -21.927402 -0.000073 -0.000027 -15.015545 -0.000118 -0.000004 0.000041 -13.963740 0.224121 -13.727653 -8.563841 -0.028982 0.116243 -8.610765 0.008443 0.099285 -0.000003 0.001553 -0.000014 -14.611683 0.108771 -14.971656 -9.267373 -0.022822 0.038795 -9.134798 0.004593 0.032706 -0.001588 -0.000069 -0.000177 -16.243589 -0.063143 -14.053962 -10.721023 0.058760 -0.074044 -10.739529 -0.002767 -0.062751 0.000196 0.000011 0.000006 -16.826654 -0.317777 -13.643195 -11.538834 0.085752 -0.201994 -11.368071 -0.019944 -0.165727 -0.001069 0.000005 -0.000056 0.000000 0.000000 0.000000 0.000000 0.000000 0.000000 -2.140180 -3.095770 19.893923 -0.185291 -0.930673 9.856194 -1.333409 -10.597398 14.678694 -0.562997 -0.753750 -27.877903 0.000000 0.000000 0.000000 0.000000 0.000000 0.000000 0.000000 0.000000 0.000000 9.812466 6.878750 18.938875 0.240283 1.099242 13.759225 -1.783436 6.117056 11.228606 0.495194 0.388286 -27.109512 0.000000 0.000000 0.000000 0.000000 0.000000 0.000000 0.000000 0.000000 0.000000 
-0.670977 85.470352 5.898258 -1.471859 -5.320400 -15.637039 0.010786 0.174591 9.411634 5.078437 -1.326894 -4.038240 -2.802155 0.297432 20.394749 0.316333 -0.641359 -1.570245 7.565832 0.915019 11.151282 -3.185302 0.563764 -7.327111 -0.153625 3.413108 -25.862131 0.000000 0.000000 0.000000 97.956635 -0.994262 4.735431 56.001755 -44.751457 8.711388 1.396442 16.045609 32.634212 5.055661 16.253799 -11.781671 9.529927 -1.744933 40.259453 -0.000003 0.000045 -23.274218 0.000003 0.000070 -16.102169 0.000016 0.000002 -0.000051 11.194413 0.204611 -8.745834 7.720205 -0.066985 0.124299 7.688637 -0.037460 0.056942 -0.000004 0.000029 -0.000037 11.758065 0.069385 -10.932840 8.148121 -0.038291 0.037932 8.106306 -0.009295 0.037892 -0.000005 -0.000031 -0.000009 13.437868 -0.127474 -12.215141 9.704988 0.074867 -0.042998 9.564068 0.014255 -0.039572 -0.000018 -0.000245 0.000016 14.636576 -0.405166 -14.909795 10.465288 0.155304 -0.094205 10.531873 0.022130 -0.101853 0.000014 -0.000012 -0.000008 0.000000 0.000000 0.000000 0.000000 0.000000 0.000000 -95.220367 0.828590 4.505786 -55.594707 45.192581 2.618283 -1.466677 -7.535328 49.253719 -2.987877 -20.325226 -16.479010 -8.875766 1.679324 40.501743 0.000008 0.000057 -21.930027 -0.000073 -0.000027 -15.017126 -0.000121 -0.000004 0.000047 -13.967838 0.223865 -13.735915 -8.564134 -0.028843 0.115997 -8.610738 0.008508 0.099095 -0.000003 0.001558 -0.000014 -14.615011 0.108639 -14.977697 -9.267715 -0.022775 0.038762 -9.134554 0.004620 0.032697 -0.001579 -0.000069 -0.000177 -16.253338 -0.062896 -14.057482 -10.724878 0.058684 -0.074176 -10.743940 -0.002814 -0.062862 0.000190 0.000011 0.000006 -16.836466 -0.316862 -13.642540 -11.544390 0.085645 -0.202121 -11.373165 -0.019894 -0.165534 -0.001065 0.000005 -0.000056 0.000000 0.000000 0.000000 0.000000 0.000000 0.000000 -2.141438 -3.102090 19.906704 -0.184844 -0.929186 9.862776 -1.334817 -10.602207 14.679787 -0.562976 -0.755319 -27.880579 0.000000 0.000000 0.000000 0.000000 0.000000 0.000000 0.000000 0.000000 0.000000 9.808902 6.876835 18.943516 0.240068 1.098435 13.774267 -1.786169 6.115253 11.223977 0.494934 0.387337 -27.108713 0.000000 0.000000 0.000000 0.000000 0.000000 0.000000 0.000000 0.000000 0.000000 
-0.676109 85.469810 5.895092 -1.469398 -5.327158 -15.649025 0.015032 0.173041 9.417700 5.069113 -1.324296 -4.044824 -2.796328 0.293934 20.413197 0.311565 -0.640780 -1.571234 7.548638 0.914437 11.157579 -3.187463 0.557853 -7.327166 -0.153338 3.411787 -25.866999 0.000000 0.000000 0.000000 97.959877 -0.992108 4.742096 55.989372 -44.746838 8.722239 1.398323 16.042679 32.619152 5.058549 16.222755 -11.768304 9.534412 -1.745160 40.257534 -0.000003 0.000045 -23.283684 0.000003 0.000070 -16.108702 0.000016 0.000002 -0.000051 11.215683 0.204065 -8.746207 7.727398 -0.066744 0.122982 7.694842 -0.037199 0.055664 -0.000004 0.000029 -0.000037 11.777309 0.069289 -10.929543 8.152304 -0.038187 0.037411 8.110885 -0.009162 0.037440 -0.000005 -0.000032 -0.000009 13.451328 -0.127375 -12.209707 9.706179 0.074737 -0.042877 9.565293 0.014190 -0.039367 -0.000018 -0.000240 0.000016 14.646996 -0.404910 -14.902921 10.464270 0.155400 -0.094934 10.530424 0.022289 -0.102398 0.000017 -0.000012 -0.000008 0.000000 0.000000 0.000000 0.000000 0.000000 0.000000 -95.233162 0.832548 4.504402 -55.568390 45.178688 2.648974 -1.466274 -7.551700 49.224499 -3.002553 -20.271885 -16.439930 -8.876732 1.679668 40.500854 0.000009 0.000057 -21.935053 -0.000073 -0.000027 -15.020265 -0.000124 -0.000004 0.000055 -13.973675 0.223617 -13.743152 -8.565996 -0.028729 0.115790 -8.612126 0.008559 0.098931 -0.000003 0.001563 -0.000014 -14.620028 0.108507 -14.983227 -9.269107 -0.022735 0.038739 -9.135270 0.004643 0.032706 -0.001574 -0.000069 -0.000177 -16.263821 -0.062629 -14.061106 -10.728829 0.058633 -0.074279 -10.748574 -0.002847 -0.062972 0.000183 0.000011 0.000006 -16.846174 -0.315921 -13.642591 -11.549802 0.085627 -0.202174 -11.378052 -0.019787 -0.165317 -0.001063 0.000005 -0.000056 0.000000 0.000000 0.000000 0.000000 0.000000 0.000000 -2.144075 -3.108319 19.917561 -0.184401 -0.927588 9.869817 -1.336206 -10.605955 14.682072 -0.562747 -0.757170 -27.883900 0.000000 0.000000 0.000000 0.000000 0.000000 0.000000 0.000000 0.000000 0.000000 9.805607 6.874956 18.945667 0.239909 1.097734 13.791075 -1.788659 6.111256 11.220329 0.494469 0.386243 -27.109371 0.000000 0.000000 0.000000 0.000000 0.000000 0.000000 0.000000 0.000000 0.000000 
-0.680776 85.469315 5.891986 -1.466525 -5.333533 -15.661044 0.019667 0.171512 9.422978 5.060339 -1.321839 -4.050860 -2.792035 0.289871 20.429752 0.307006 -0.640705 -1.571210 7.530681 0.914852 11.164094 -3.189483 0.552741 -7.327898 -0.153802 3.409941 -25.871677 0.000000 0.000000 0.000000 97.963257 -0.989315 4.749477 55.979298 -44.739815 8.731294 1.400575 16.037409 32.602520 5.067387 16.184025 -11.751294 9.539518 -1.745471 40.255268 -0.000003 0.000045 -23.294724 0.000002 0.000070 -16.116438 0.000016 0.000002 -0.000051 11.240236 0.203504 -8.748466 7.736773 -0.066482 0.121344 7.703431 -0.036909 0.054052 -0.000004 0.000029 -0.000037 11.800083 0.069179 -10.927757 8.158639 -0.038074 0.036782 8.117458 -0.009018 0.036889 -0.000005 -0.000032 -0.000009 13.468377 -0.127273 -12.205357 9.708905 0.074622 -0.042665 9.567912 0.014130 -0.039085 -0.000018 -0.000233 0.000016 14.659970 -0.404646 -14.896568 10.463787 0.155653 -0.095531 10.529417 0.022511 -0.102847 0.000020 -0.000012 -0.000008 0.000000 0.000000 0.000000 0.000000 0.000000 0.000000 -95.245491 0.836550 4.505712 -55.545692 45.162766 2.676241 -1.466024 -7.569632 49.197727 -3.020769 -20.217003 -16.399595 -8.878766 1.680107 40.499546 0.000009 0.000057 -21.942558 -0.000072 -0.000027 -15.024982 -0.000129 -0.000004 0.000064 -13.981699 0.223390 -13.749405 -8.569432 -0.028650 0.115670 -8.615028 0.008591 0.098860 -0.000003 0.001567 -0.000014 -14.627891 0.108375 -14.988096 -9.271777 -0.022704 0.038764 -9.137176 0.004663 0.032757 -0.001571 -0.000069 -0.000176 -16.277239 -0.062363 -14.064407 -10.733751 0.058608 -0.074406 -10.754200 -0.002871 -0.063130 0.000177 0.000011 0.000006 -16.858536 -0.315006 -13.642966 -11.556016 0.085692 -0.202342 -11.383605 -0.019636 -0.165260 -0.001060 0.000005 -0.000056 0.000000 0.000000 0.000000 0.000000 0.000000 0.000000 -2.148259 -3.115296 19.928226 -0.183974 -0.926010 9.876298 -1.337235 -10.609390 14.685290 -0.562481 -0.759158 -27.887251 0.000000 0.000000 0.000000 0.000000 0.000000 0.000000 0.000000 0.000000 0.000000 9.802136 6.872137 18.946466 0.239805 1.097166 13.808483 -1.790801 6.105470 11.217959 0.493895 0.385028 -27.110949 0.000000 0.000000 0.000000 0.000000 0.000000 0.000000 0.000000 0.000000 0.000000 
